<?xml version="1.0" encoding="UTF-8"?>
<svg version="1.1" xmlns="http://www.w3.org/2000/svg" width="517" height="168">
<path d="M0 0 C170.61 0 341.22 0 517 0 C517 55.44 517 110.88 517 168 C346.39 168 175.78 168 0 168 C0 112.56 0 57.12 0 0 Z " fill="#FDFCFC" transform="translate(0,0)"/>
<path d="M0 0 C3.0625 0.1875 3.0625 0.1875 5.0625 2.1875 C7.02839355 13.58968261 -1.13203099 24.23770991 -6.75 33.625 C-12.42936142 43.24514281 -14.0658653 53.30721396 -15.9375 64.1875 C-16.12828125 65.14011719 -16.3190625 66.09273438 -16.515625 67.07421875 C-17.0923981 71.33059064 -17.08229941 75.5226268 -17.0625 79.8125 C-17.06636719 80.658125 -17.07023438 81.50375 -17.07421875 82.375 C-17.07292969 83.19226563 -17.07164062 84.00953125 -17.0703125 84.8515625 C-17.06862061 85.95685303 -17.06862061 85.95685303 -17.06689453 87.08447266 C-16.93491645 89.22949006 -16.52422999 91.12433128 -15.9375 93.1875 C-18.81292284 92.87664348 -20.47794682 92.63283879 -22.5871582 90.58886719 C-24.44407407 87.28663894 -24.27687995 84.79040281 -24.23046875 81.015625 C-24.22622391 80.3332074 -24.22197906 79.65078979 -24.21760559 78.94769287 C-24.20086972 76.77721996 -24.16322959 74.60769021 -24.125 72.4375 C-24.10994646 70.96225303 -24.09625922 69.48699145 -24.08398438 68.01171875 C-24.05098377 64.40334156 -23.99923767 60.7955129 -23.9375 57.1875 C-24.40800781 57.94675781 -24.87851563 58.70601562 -25.36328125 59.48828125 C-25.98589844 60.48214844 -26.60851562 61.47601563 -27.25 62.5 C-27.86488281 63.48613281 -28.47976562 64.47226563 -29.11328125 65.48828125 C-30.61096131 67.70433462 -31.87887972 69.50112339 -33.9375 71.1875 C-36.89843091 71.63163964 -38.30184496 71.64780193 -40.75 69.875 C-41.9375 68.1875 -41.9375 68.1875 -41.9375 65.1875 C-44.32533038 67.3751943 -45.77307392 69.53894322 -47.3125 72.375 C-49.58130778 76.08573079 -49.58130778 76.08573079 -52.5625 76.9375 C-55.59387221 75.98022456 -56.28045655 74.85848506 -57.9375 72.1875 C-59.69259432 63.88637819 -56.29336549 55.07544248 -53.9375 47.1875 C-59.42420558 54.22173792 -64.17637391 61.6543405 -68.9375 69.1875 C-71.35546875 68.81640625 -71.35546875 68.81640625 -73.9375 68.1875 C-75.25 66.125 -75.25 66.125 -75.9375 64.1875 C-76.535625 65.115625 -77.13375 66.04375 -77.75 67 C-81.17279412 71.9875 -81.17279412 71.9875 -82.9375 73.1875 C-85.5 73.0625 -85.5 73.0625 -87.9375 72.1875 C-90.042684 69.029724 -90.19039344 68.23352866 -90.125 64.625 C-90.11855469 63.83996094 -90.11210937 63.05492187 -90.10546875 62.24609375 C-89.9375 60.1875 -89.9375 60.1875 -88.9375 58.1875 C-89.5975 58.1875 -90.2575 58.1875 -90.9375 58.1875 C-91.185 58.909375 -91.4325 59.63125 -91.6875 60.375 C-93.10422135 63.56262304 -94.42960858 65.74927223 -96.9375 68.1875 C-100.0625 68.6875 -100.0625 68.6875 -102.9375 68.1875 C-105.45425702 64.41236447 -105.30558778 62.6781709 -104.9375 58.1875 C-104.10042874 55.41984243 -103.06265524 52.85974368 -101.9375 50.1875 C-103.9175 50.1875 -105.8975 50.1875 -107.9375 50.1875 C-107.94007813 50.78175781 -107.94265625 51.37601563 -107.9453125 51.98828125 C-108.58865106 65.77717096 -117.65776582 75.51614199 -127.375 84.5 C-134.10590716 89.93114578 -140.7377252 93.0906388 -149.5078125 92.59375 C-151.9375 92.1875 -151.9375 92.1875 -155.125 90.75 C-157.37125798 87.57425596 -157.89366668 85.55547498 -157.68359375 81.69140625 C-156.10816098 76.40422088 -151.85117276 72.87952462 -147.9375 69.1875 C-147.11378906 68.35412109 -147.11378906 68.35412109 -146.2734375 67.50390625 C-139.1697094 60.78268659 -124.89646019 51.1875 -114.9375 51.1875 C-115.4325 47.2275 -115.4325 47.2275 -115.9375 43.1875 C-117.99933633 43.10599256 -120.06211349 43.0480806 -122.125 43 C-123.27355469 42.96519531 -124.42210937 42.93039063 -125.60546875 42.89453125 C-129.23507016 43.21366385 -130.94697581 44.20785723 -133.9375 46.1875 C-136.25 45.875 -136.25 45.875 -137.9375 45.1875 C-138.21615021 42.23887414 -138.35473361 40.72637938 -136.50390625 38.3359375 C-135.51197266 37.45808594 -135.51197266 37.45808594 -134.5 36.5625 C-126.19985669 28.74714382 -117.60426923 19.18780769 -113.9375 8.1875 C-133.54880988 19.24114739 -141.53380134 40.61788226 -147.9375 61.1875 C-148.73677147 64.19047708 -149.38139982 67.12894901 -149.9375 70.1875 C-151.8125 70.8125 -151.8125 70.8125 -153.9375 71.1875 C-156.51801633 68.60698367 -156.19572169 66.8431669 -156.21582031 63.32397461 C-156.20647461 62.53643799 -156.19712891 61.74890137 -156.1875 60.9375 C-156.18073242 60.12482666 -156.17396484 59.31215332 -156.16699219 58.47485352 C-155.91275387 43.42010213 -153.77701141 25.34667986 -145.9375 12.1875 C-142.9675 12.6825 -142.9675 12.6825 -139.9375 13.1875 C-139.74015397 17.71965373 -140.38231045 21.2494116 -141.75 25.5625 C-144.0863841 33.34490399 -145.56584297 41.18616733 -146.9375 49.1875 C-146.65777344 48.32769531 -146.37804687 47.46789063 -146.08984375 46.58203125 C-140.96035762 31.45746926 -133.10456556 12.77103278 -117.9375 5.1875 C-111.57852028 4.72502875 -111.57852028 4.72502875 -109.2265625 6.421875 C-107.06406301 9.383844 -107.64063525 11.86185624 -108.10546875 15.37109375 C-109.71273119 20.81163939 -113.38982488 24.8625957 -116.9375 29.1875 C-118.27389452 30.91430191 -119.60749152 32.64327468 -120.9375 34.375 C-121.93569431 35.64725213 -122.93496446 36.91866595 -123.9375 38.1875 C-122.926875 38.105 -121.91625 38.0225 -120.875 37.9375 C-115.90477594 38.25306978 -113.9211221 39.23961965 -109.9375 42.1875 C-109.2421875 44.83203125 -109.2421875 44.83203125 -108.9375 47.1875 C-102.0621417 46.29303591 -98.85096458 45.23376091 -93.9375 40.1875 C-89.49606266 39.65146446 -87.68797482 39.68718346 -83.9375 42.1875 C-83.75 44.8125 -83.75 44.8125 -83.9375 47.1875 C-84.39125 46.6925 -84.845 46.1975 -85.3125 45.6875 C-86.81385519 43.96140663 -86.81385519 43.96140663 -88.9375 44.1875 C-90.46744513 46.26354092 -90.46744513 46.26354092 -91.9375 48.875 C-92.453125 49.74511719 -92.96875 50.61523438 -93.5 51.51171875 C-95.7370609 55.67581308 -96.9375 58.40218466 -96.9375 63.1875 C-93.6375 58.2375 -90.3375 53.2875 -86.9375 48.1875 C-84.9575 48.5175 -82.9775 48.8475 -80.9375 49.1875 C-80.55135651 56.0093683 -81.92884292 61.68327707 -83.9375 68.1875 C-83.2775 68.1875 -82.6175 68.1875 -81.9375 68.1875 C-81.53144531 67.33478516 -81.53144531 67.33478516 -81.1171875 66.46484375 C-79.89988243 64.11488066 -78.50585401 61.96738064 -77.0625 59.75 C-73.96766596 54.6850399 -72.33209453 49.58493931 -70.796875 43.875 C-69.9375 41.1875 -69.9375 41.1875 -67.9375 39.1875 C-65.3125 39.5625 -65.3125 39.5625 -62.9375 40.1875 C-63.60416667 45.52083333 -64.27083333 50.85416667 -64.9375 56.1875 C-64.47859375 55.59582031 -64.0196875 55.00414062 -63.546875 54.39453125 C-62.28410852 52.76832147 -61.01972838 51.14336368 -59.75390625 49.51953125 C-58.37258136 47.74608833 -56.99737472 45.96787801 -55.625 44.1875 C-53.9375 42.1875 -53.9375 42.1875 -51.9375 41.1875 C-49.93789988 41.147508 -47.93702758 41.14403201 -45.9375 41.1875 C-45.52567675 47.09029988 -46.78593274 52.20189157 -48.28125 57.90625 C-48.98216128 61.4108064 -49.04552027 64.62283123 -48.9375 68.1875 C-47.66178516 66.0027247 -46.39189327 63.81488381 -45.125 61.625 C-44.76857422 61.01591797 -44.41214844 60.40683594 -44.04492188 59.77929688 C-42.27478858 56.70998319 -40.67714185 53.68062073 -39.3359375 50.3984375 C-37.75687272 46.77276362 -35.85990623 44.81017226 -32.9375 42.1875 C-31.9475 41.1975 -31.9475 41.1975 -30.9375 40.1875 C-26.79752433 39.9903583 -23.86046433 39.87984522 -19.9375 41.1875 C-19.80794922 40.33091797 -19.80794922 40.33091797 -19.67578125 39.45703125 C-18.56361954 33.03914393 -16.58730616 27.26180077 -14.15625 21.2265625 C-13.18736339 18.8105568 -12.32528472 16.40352934 -11.5 13.9375 C-9.58083111 8.73466642 -5.95629607 0.38018911 0 0 Z " fill="#E28338" transform="translate(254.9375,15.8125)"/>
<path d="M0 0 C2.8125 0.5 2.8125 0.5 5.8125 2.5 C7.48308964 15.44706967 -0.92600972 28.24261594 -8.1875 38.5 C-9.62976922 40.11701515 -11.10534845 41.70548142 -12.625 43.25 C-16.97133785 47.76915446 -17.72998571 52.3807464 -18.1875 58.5 C-17.80078125 57.89671875 -17.4140625 57.2934375 -17.015625 56.671875 C-10.99246713 47.4284149 -10.99246713 47.4284149 -8.1875 45.5 C-4.4889996 45.64794002 -2.82944427 45.85805573 -0.1875 48.5 C0.81493829 55.64725479 -0.64544174 62.39074142 -2.53125 69.26171875 C-3.31428716 73.12563424 -3.28986165 76.56334165 -3.1875 80.5 C-1.76053328 77.421333 -0.34607581 74.33712409 1.0625 71.25 C1.47999512 70.33573242 1.89749023 69.42146484 2.32763672 68.47949219 C4.51186051 63.62699657 6.44663637 58.8690716 7.9375 53.75 C9.64565545 48.14883911 12.62417577 44.5124366 16.8125 40.5 C17.1425 40.17 17.4725 39.84 17.8125 39.5 C24.27403846 39.14102564 24.27403846 39.14102564 27.8125 41.5 C27.8125 42.82 27.8125 44.14 27.8125 45.5 C26.8225 45.17 25.8325 44.84 24.8125 44.5 C24.8125 43.84 24.8125 43.18 24.8125 42.5 C18.76313132 47.8772166 15.95365467 53.47768267 14.8125 61.5 C16.10490512 59.72970554 17.39639793 57.95874502 18.6875 56.1875 C19.40679687 55.20136719 20.12609375 54.21523437 20.8671875 53.19921875 C22.2180935 51.32476885 23.53085329 49.42247007 24.8125 47.5 C27.7825 47.995 27.7825 47.995 30.8125 48.5 C31.26760807 55.17491831 29.5797426 61.09374557 27.8125 67.5 C28.4725 67.5 29.1325 67.5 29.8125 67.5 C30.09609375 66.90574219 30.3796875 66.31148438 30.671875 65.69921875 C31.8125 63.5 31.8125 63.5 34.0625 60.3125 C38.29400274 53.70630319 40.36592058 45.8985907 42.8125 38.5 C44.47861905 38.457279 46.14632885 38.45936168 47.8125 38.5 C48.8125 39.5 48.8125 39.5 49.0625 42 C48.78826156 45.8393381 47.80536742 48.86634149 46.46875 52.44921875 C45.66011214 54.61734163 45.66011214 54.61734163 45.8125 57.5 C46.17601562 56.93152344 46.53953125 56.36304688 46.9140625 55.77734375 C55.87976295 42.00694742 55.87976295 42.00694742 61.625 40.5 C62.676875 40.5 63.72875 40.5 64.8125 40.5 C65.8125 41.5 65.8125 41.5 66.0625 44.3125 C66.02445967 48.92489033 64.66519732 53.18193866 63.48046875 57.609375 C62.68174801 61.06582732 62.57235412 63.97786042 62.8125 67.5 C67.00183094 60.50951879 70.88510909 53.51768887 74.2578125 46.09375 C76.07720197 43.05838666 77.85267323 41.42545463 80.8125 39.5 C83.70140057 38.8857833 85.80828362 39.20450331 88.8125 39.5 C90.8125 41.5 90.8125 41.5 90.9375 44.125 C90.89625 44.90875 90.855 45.6925 90.8125 46.5 C90.1525 46.5 89.4925 46.5 88.8125 46.5 C88.4825 45.84 88.1525 45.18 87.8125 44.5 C85.13071692 44.85452143 84.07806939 45.16642766 82.36328125 47.3203125 C81.75033203 48.46113281 81.75033203 48.46113281 81.125 49.625 C80.50044922 50.74261719 80.50044922 50.74261719 79.86328125 51.8828125 C78.43987901 55.12833894 78.43987901 55.12833894 77.8125 61.5 C82.7625 54.57 82.7625 54.57 87.8125 47.5 C89.4625 47.83 91.1125 48.16 92.8125 48.5 C94.42428894 52.52947234 92.97267428 55.47351278 91.8125 59.5 C91.73846322 61.83215844 91.71734114 64.16860788 91.8125 66.5 C92.75312842 65.27322572 93.68984232 64.04344965 94.625 62.8125 C95.14707031 62.12800781 95.66914063 61.44351563 96.20703125 60.73828125 C100.08352068 55.33383248 101.61162185 50.72085879 102.96875 44.2421875 C103.83231952 41.43558656 104.43074132 40.18437028 106.8125 38.5 C109.5 38.8125 109.5 38.8125 111.8125 39.5 C111.7403125 40.11488281 111.668125 40.72976562 111.59375 41.36328125 C111.5009375 42.17152344 111.408125 42.97976562 111.3125 43.8125 C111.2196875 44.61300781 111.126875 45.41351563 111.03125 46.23828125 C110.76436537 48.61896555 110.76436537 48.61896555 110.8125 51.5 C111.37839844 50.71753906 111.94429687 49.93507812 112.52734375 49.12890625 C113.26082031 48.11699219 113.99429688 47.10507812 114.75 46.0625 C115.48089844 45.05316406 116.21179688 44.04382812 116.96484375 43.00390625 C118.8125 40.5 118.8125 40.5 119.8125 39.5 C122.25 39.3125 122.25 39.3125 124.8125 39.5 C126.8125 41.5 126.8125 41.5 127 44.75 C126.83309174 48.08816523 126.4517895 51.22364133 125.8125 54.5 C126.27140625 53.96890625 126.7303125 53.4378125 127.203125 52.890625 C128.46535198 51.43747293 129.73381338 49.98971738 131.0078125 48.546875 C132.33262628 47.04427236 133.6401087 45.5263427 134.9375 44 C136.8125 42.5 136.8125 42.5 139.4375 42.125 C141.8125 42.5 141.8125 42.5 143.8125 44.5 C144.25360312 51.32239498 141.40985654 57.37105987 138.8125 63.5 C136.60285242 69.57653084 136.6047693 75.11805134 136.8125 81.5 C134.5 81.75 134.5 81.75 131.8125 81.5 C129.16406108 78.71221099 128.39060616 76.72881235 128.40625 72.9140625 C128.58424539 67.14404541 130.26026989 62.22347615 132.3125 56.875 C132.81330078 55.51181641 132.81330078 55.51181641 133.32421875 54.12109375 C134.13945409 51.90831211 134.96885386 49.70207027 135.8125 47.5 C135.44487549 47.9846875 135.07725098 48.469375 134.69848633 48.96875 C133.02323289 51.15855496 131.32467727 53.32910691 129.625 55.5 C129.04685547 56.263125 128.46871094 57.02625 127.87304688 57.8125 C127.30263672 58.534375 126.73222656 59.25625 126.14453125 60 C125.62608643 60.6703125 125.1076416 61.340625 124.57348633 62.03125 C122.8125 63.5 122.8125 63.5 120.16674805 63.78125 C117.8125 63.5 117.8125 63.5 116.8125 62.5 C116.73960487 60.70969562 116.72883863 58.91666282 116.75 57.125 C116.75902344 56.14789063 116.76804687 55.17078125 116.77734375 54.1640625 C116.79474609 52.84535156 116.79474609 52.84535156 116.8125 51.5 C116.8125 50.51 116.8125 49.52 116.8125 48.5 C112.76886079 55.68406004 109.11464973 62.9459672 105.8125 70.5 C100.9375 69.625 100.9375 69.625 99.8125 68.5 C99.77169217 66.50041636 99.76995644 64.49954746 99.8125 62.5 C99.1525 62.5 98.4925 62.5 97.8125 62.5 C97.585625 63.221875 97.35875 63.94375 97.125 64.6875 C95.52480352 68.11649245 93.74835257 70.12335744 90.8125 72.5 C88.28951401 72.5 87.22672706 71.76080963 85.125 70.4375 C83.02629714 67.33941482 83.11555257 64.1972414 82.8125 60.5 C82.43738281 61.0053125 82.06226563 61.510625 81.67578125 62.03125 C77.44371784 67.40394511 77.44371784 67.40394511 73.9375 67.9375 C73.23625 67.793125 72.535 67.64875 71.8125 67.5 C71.1525 66.18 70.4925 64.86 69.8125 63.5 C69.1525 63.5 68.4925 63.5 67.8125 63.5 C67.63460937 64.35851562 67.63460937 64.35851562 67.453125 65.234375 C66.35822866 69.10656939 64.40854368 72.4326076 61.8125 75.5 C59.1875 76.1875 59.1875 76.1875 56.8125 75.5 C54.60212523 73.82627872 53.89007344 72.95023015 53.4140625 70.1875 C53.46776748 64.02932893 54.30976053 58.69391089 56.15625 52.8125 C56.94900184 50.41962912 56.94900184 50.41962912 56.8125 47.5 C51.98119959 54.40486507 47.19170647 61.29549903 42.8125 68.5 C40.4375 68.25 40.4375 68.25 37.8125 67.5 C36.6484375 65.453125 36.6484375 65.453125 35.8125 63.5 C35.43738281 64.06589844 35.06226563 64.63179688 34.67578125 65.21484375 C30.50358958 71.19463484 30.50358958 71.19463484 27.125 72.6875 C24.8125 72.5 24.8125 72.5 23.2109375 71.3125 C21.38771453 68.94944006 21.31691078 67.26792598 21.125 64.3125 C21.05925781 63.41144531 20.99351562 62.51039062 20.92578125 61.58203125 C20.86970703 60.55142578 20.86970703 60.55142578 20.8125 59.5 C20.14154297 60.36625 20.14154297 60.36625 19.45703125 61.25 C18.55017578 62.36375 18.55017578 62.36375 17.625 63.5 C17.03332031 64.2425 16.44164062 64.985 15.83203125 65.75 C13.8125 67.5 13.8125 67.5 11.19921875 67.8125 C8.8125 67.5 8.8125 67.5 6.8125 66.5 C6.33039063 67.62019531 5.84828125 68.74039063 5.3515625 69.89453125 C4.7136953 71.36725405 4.07566599 72.83990665 3.4375 74.3125 C3.12039063 75.05048828 2.80328125 75.78847656 2.4765625 76.54882812 C2.1671875 77.26103516 1.8578125 77.97324219 1.5390625 78.70703125 C1.11488037 79.68893433 1.11488037 79.68893433 0.68212891 80.69067383 C-0.1875 82.5 -0.1875 82.5 -2.1875 85.5 C-5.125 85.9375 -5.125 85.9375 -8.1875 85.5 C-10.80176218 83.06328724 -11.17837984 81.58020372 -11.5859375 77.99609375 C-11.59795082 76.64325995 -11.58918399 75.29012396 -11.5625 73.9375 C-11.55379883 72.87547363 -11.55379883 72.87547363 -11.54492188 71.79199219 C-11.41556297 66.50504596 -10.53110468 61.76519172 -8.84375 56.734375 C-7.9996313 54.2484775 -7.9996313 54.2484775 -8.1875 50.5 C-13.0233519 57.37987178 -17.51349009 64.47797026 -20.1875 72.5 C-22.5625 72.6875 -22.5625 72.6875 -25.1875 72.5 C-29.9790616 65.31265759 -26.80629897 54.50390601 -25.2890625 46.42578125 C-22.68079062 33.97041027 -14.87433399 2.33322886 0 0 Z " fill="#E38339" transform="translate(274.1875,16.5)"/>
<path d="M0 0 C2.16995657 1.56553944 2.90454796 2.437777 3.35546875 5.09375 C2.79253897 13.15804641 -0.98743997 17.88928194 -6 24 C-7.33639452 25.72680191 -8.66999152 27.45577468 -10 29.1875 C-10.99819431 30.45975213 -11.99746446 31.73116595 -13 33 C-11.989375 32.9175 -10.97875 32.835 -9.9375 32.75 C-4.95982731 33.06604271 -3.01773746 34.08517086 1 37 C1.69313908 38.65583225 2.36474424 40.32110979 3 42 C5.54775306 42.89386164 5.54775306 42.89386164 8 43 C7.505 43.99 7.505 43.99 7 45 C5.68 45 4.36 45 3 45 C2.99742187 45.59425781 2.99484375 46.18851563 2.9921875 46.80078125 C2.34884894 60.58967096 -6.72026582 70.32864199 -16.4375 79.3125 C-23.16840716 84.74364578 -29.8002252 87.9031388 -38.5703125 87.40625 C-41 87 -41 87 -44.1875 85.5625 C-46.43375798 82.38675596 -46.95616668 80.36797498 -46.74609375 76.50390625 C-45.17066098 71.21672088 -40.91367276 67.69202462 -37 64 C-36.17628906 63.16662109 -36.17628906 63.16662109 -35.3359375 62.31640625 C-28.2322094 55.59518659 -13.95896019 46 -4 46 C-4.495 42.04 -4.495 42.04 -5 38 C-7.06183633 37.91849256 -9.12461349 37.8605806 -11.1875 37.8125 C-12.33605469 37.77769531 -13.48460937 37.74289063 -14.66796875 37.70703125 C-18.29757016 38.02616385 -20.00947581 39.02035723 -23 41 C-25.3125 40.6875 -25.3125 40.6875 -27 40 C-27.27865021 37.05137414 -27.41723361 35.53887938 -25.56640625 33.1484375 C-24.90511719 32.56320313 -24.24382812 31.97796875 -23.5625 31.375 C-15.26235669 23.55964382 -6.66676923 14.00030769 -3 3 C-22.61130988 14.05364739 -30.59630134 35.43038226 -37 56 C-37.79927147 59.00297708 -38.44389982 61.94144901 -39 65 C-40.875 65.625 -40.875 65.625 -43 66 C-45.58051633 63.41948367 -45.25822169 61.6556669 -45.27832031 58.13647461 C-45.26897461 57.34893799 -45.25962891 56.56140137 -45.25 55.75 C-45.24323242 54.93732666 -45.23646484 54.12465332 -45.22949219 53.28735352 C-44.97525387 38.23260213 -42.83951141 20.15917986 -35 7 C-32.03 7.495 -32.03 7.495 -29 8 C-28.80265397 12.53215373 -29.44481045 16.0619116 -30.8125 20.375 C-33.1488841 28.15740399 -34.62834297 35.99866733 -36 44 C-35.72027344 43.14019531 -35.44054687 42.28039063 -35.15234375 41.39453125 C-30.00157411 26.2072137 -19.36741353 -1.35911674 0 0 Z " fill="#E3853A" transform="translate(144,21)"/>
<path d="M0 0 C2.625 0.375 2.625 0.375 5 1 C4.33333333 6.33333333 3.66666667 11.66666667 3 17 C3.45890625 16.40832031 3.9178125 15.81664063 4.390625 15.20703125 C5.65339148 13.58082147 6.91777162 11.95586368 8.18359375 10.33203125 C9.56491864 8.55858833 10.94012528 6.78037801 12.3125 5 C14 3 14 3 16 2 C17.99960012 1.960008 20.00047242 1.95653201 22 2 C22.41562343 7.95726917 21.08640797 13.11307179 19.66796875 18.88671875 C18.90988287 22.4200196 18.7497846 25.41357924 19 29 C20.32 26.69 21.64 24.38 23 22 C23.495 22.99 23.495 22.99 24 24 C24.66 24 25.32 24 26 24 C26 26 26 26 24.6484375 27.36328125 C24.10445313 27.90339844 23.56046875 28.44351563 23 29 C22.18177148 30.38043069 21.39053629 31.77716636 20.625 33.1875 C18.35619222 36.89823079 18.35619222 36.89823079 15.375 37.75 C12.34362779 36.79272456 11.65704345 35.67098506 10 33 C8.24490568 24.69887819 11.64413451 15.88794248 14 8 C8.51329442 15.03423792 3.76112609 22.4668405 -1 30 C-3.41796875 29.62890625 -3.41796875 29.62890625 -6 29 C-7.3125 26.9375 -7.3125 26.9375 -8 25 C-8.598125 25.928125 -9.19625 26.85625 -9.8125 27.8125 C-13.23529412 32.8 -13.23529412 32.8 -15 34 C-17.5625 33.875 -17.5625 33.875 -20 33 C-22.105184 29.842224 -22.25289344 29.04602866 -22.1875 25.4375 C-22.18105469 24.65246094 -22.17460937 23.86742188 -22.16796875 23.05859375 C-22 21 -22 21 -21 19 C-21.66 19 -22.32 19 -23 19 C-23.2475 19.721875 -23.495 20.44375 -23.75 21.1875 C-25.16672135 24.37512304 -26.49210858 26.56177223 -29 29 C-32.125 29.5 -32.125 29.5 -35 29 C-37.51675702 25.22486447 -37.36808778 23.4906709 -37 19 C-36.16292874 16.23234243 -35.12515524 13.67224368 -34 11 C-35.98 10.34 -37.96 9.68 -40 9 C-40 8.67 -40 8.34 -40 8 C-39.40832031 7.91363281 -38.81664062 7.82726563 -38.20703125 7.73828125 C-32.72156895 6.77111354 -32.72156895 6.77111354 -28.375 3.375 C-26 1 -26 1 -22.375 0.5625 C-19 1 -19 1 -16 3 C-15.8125 5.625 -15.8125 5.625 -16 8 C-16.680625 7.2575 -16.680625 7.2575 -17.375 6.5 C-18.87635519 4.77390663 -18.87635519 4.77390663 -21 5 C-22.52994513 7.07604092 -22.52994513 7.07604092 -24 9.6875 C-24.515625 10.55761719 -25.03125 11.42773438 -25.5625 12.32421875 C-27.7995609 16.48831308 -29 19.21468466 -29 24 C-25.7 19.05 -22.4 14.1 -19 9 C-16.03 9.495 -16.03 9.495 -13 10 C-12.61385651 16.8218683 -13.99134292 22.49577707 -16 29 C-15.34 29 -14.68 29 -14 29 C-13.72929687 28.43152344 -13.45859375 27.86304687 -13.1796875 27.27734375 C-11.96238243 24.92738066 -10.56835401 22.77988064 -9.125 20.5625 C-6.03016596 15.4975399 -4.39459453 10.39743931 -2.859375 4.6875 C-2 2 -2 2 0 0 Z " fill="#E3843A" transform="translate(187,55)"/>
<path d="M0 0 C2.16995657 1.56553944 2.90454796 2.437777 3.35546875 5.09375 C2.79253897 13.15804641 -0.98743997 17.88928194 -6 24 C-7.33639452 25.72680191 -8.66999152 27.45577468 -10 29.1875 C-10.99819431 30.45975213 -11.99746446 31.73116595 -13 33 C-10.69 33 -8.38 33 -6 33 C-6.66 33.66 -7.32 34.32 -8 35 C-7.34 35.66 -6.68 36.32 -6 37 C-7.21236328 37.05607422 -7.21236328 37.05607422 -8.44921875 37.11328125 C-9.51785156 37.17902344 -10.58648437 37.24476562 -11.6875 37.3125 C-12.74324219 37.37050781 -13.79898438 37.42851563 -14.88671875 37.48828125 C-18.24196537 38.03977097 -20.16615498 39.1894879 -23 41 C-25.3125 40.6875 -25.3125 40.6875 -27 40 C-27.27865021 37.05137414 -27.41723361 35.53887938 -25.56640625 33.1484375 C-24.90511719 32.56320313 -24.24382812 31.97796875 -23.5625 31.375 C-15.26235669 23.55964382 -6.66676923 14.00030769 -3 3 C-22.61130988 14.05364739 -30.59630134 35.43038226 -37 56 C-37.79927147 59.00297708 -38.44389982 61.94144901 -39 65 C-40.875 65.625 -40.875 65.625 -43 66 C-45.58051633 63.41948367 -45.25822169 61.6556669 -45.27832031 58.13647461 C-45.26897461 57.34893799 -45.25962891 56.56140137 -45.25 55.75 C-45.23984863 54.53098999 -45.23984863 54.53098999 -45.22949219 53.28735352 C-44.97525387 38.23260213 -42.83951141 20.15917986 -35 7 C-32.03 7.495 -32.03 7.495 -29 8 C-28.80265397 12.53215373 -29.44481045 16.0619116 -30.8125 20.375 C-33.1488841 28.15740399 -34.62834297 35.99866733 -36 44 C-35.72027344 43.14019531 -35.44054687 42.28039063 -35.15234375 41.39453125 C-30.00157411 26.2072137 -19.36741353 -1.35911674 0 0 Z " fill="#E38539" transform="translate(144,21)"/>
<path d="M0 0 C2.8125 0.5 2.8125 0.5 5.8125 2.5 C7.4821557 15.43983165 -0.92091383 28.25147166 -8.1875 38.5 C-9.60972138 40.0750424 -11.06468236 41.62166553 -12.5625 43.125 C-17.33446241 48.07757453 -18.20350413 53.86827785 -19.1875 60.5 C-17.7025 60.005 -17.7025 60.005 -16.1875 59.5 C-16.90758406 64.10853797 -18.50045939 68.17237409 -20.1875 72.5 C-22.5625 72.6875 -22.5625 72.6875 -25.1875 72.5 C-29.9790616 65.31265759 -26.80629897 54.50390601 -25.2890625 46.42578125 C-22.68079062 33.97041027 -14.87433399 2.33322886 0 0 Z " fill="#E28338" transform="translate(274.1875,16.5)"/>
<path d="M0 0 C10.13102208 -0.02365607 20.26203712 -0.04117589 30.39308167 -0.05181217 C35.10239671 -0.05692891 39.81169227 -0.06380896 44.52099609 -0.07543945 C64.64483918 -0.12371683 84.75634148 -0.05457745 104.875 0.44140625 C105.69749237 0.46093794 106.51998474 0.48046963 107.36740112 0.50059319 C133.58131211 1.13993719 133.58131211 1.13993719 142 3 C142 3.33 142 3.66 142 4 C127.6917789 5.55448693 113.51267046 6.39931975 99.125 6.625 C98.1080304 6.64368134 97.09106079 6.66236267 96.04327393 6.68161011 C64.03454252 7.26681858 32.01252338 7.09131763 0 7 C0 4.69 0 2.38 0 0 Z " fill="#161616" transform="translate(268,123)"/>
<path d="M0 0 C0 2.31 0 4.62 0 7 C-22.05250176 7.06310304 -44.09702801 6.927731 -66.14746094 6.62768555 C-69.38246217 6.58372951 -72.61747913 6.54208389 -75.85253906 6.50268555 C-97.91117419 6.23395946 -119.95233058 5.75304949 -142 5 C-142.33 4.34 -142.66 3.68 -143 3 C-139.55718232 1.27859116 -135.59309652 1.62414626 -131.796875 1.46484375 C-130.81157303 1.42177597 -129.82627106 1.37870819 -128.81111145 1.33433533 C-125.45769053 1.19356818 -122.10398615 1.06406331 -118.75 0.9375 C-117.59136444 0.89264465 -116.43272888 0.84778931 -115.23898315 0.80157471 C-76.84970052 -0.63155955 -38.40825967 -0.17856491 0 0 Z " fill="#0D0D0D" transform="translate(244,123)"/>
<path d="M0 0 C-1.80764297 11.46164831 -13.16445948 22.42618638 -21.3515625 30.24609375 C-23.27886824 31.93583868 -23.27886824 31.93583868 -23.25 34.75 C-23.12625 35.86375 -23.12625 35.86375 -23 37 C-19.62537285 36.45276317 -17.91765 35.9451 -15 34 C-11.8984375 33.76953125 -11.8984375 33.76953125 -8.375 33.8125 C-7.20710938 33.81894531 -6.03921875 33.82539062 -4.8359375 33.83203125 C-2 34 -2 34 -1 35 C-0.85884839 37.67058851 -0.95752893 40.32432238 -1 43 C-2.10794922 43.43699219 -2.10794922 43.43699219 -3.23828125 43.8828125 C-14.23823727 48.32752154 -23.84721676 53.42465035 -33 61 C-34.010625 61.804375 -35.02125 62.60875 -36.0625 63.4375 C-37.0215625 64.2109375 -37.0215625 64.2109375 -38 65 C-38.33 64.34 -38.66 63.68 -39 63 C-38.01 62.505 -38.01 62.505 -37 62 C-36.36228907 59.87530433 -35.81765505 57.72255216 -35.3125 55.5625 C-30.28736897 35.47661929 -22.04903759 14.22524121 -4.78515625 1.66015625 C-2 0 -2 0 0 0 Z " fill="#FCF6F2" transform="translate(141,24)"/>
<path d="M0 0 C5.55281447 0.99793842 9.61590768 4.20288697 14.04296875 7.546875 C14.74164063 8.05992188 15.4403125 8.57296875 16.16015625 9.1015625 C17.45639639 10.06463249 18.74553652 11.03733344 20.02734375 12.01953125 C27.4167063 17.61883504 35.18733362 22.63336938 43.04296875 27.546875 C42.54796875 29.031875 42.54796875 29.031875 42.04296875 30.546875 C36.49702223 30.02101899 31.95340565 28.98457658 26.73046875 26.921875 C25.34026206 26.37913564 23.94961654 25.8375193 22.55859375 25.296875 C21.83091797 25.01199219 21.10324219 24.72710937 20.35351562 24.43359375 C17.92249867 23.50064219 15.47870389 22.61241791 13.02734375 21.734375 C12.18727783 21.43225098 11.34721191 21.13012695 10.48168945 20.81884766 C8.85675133 20.23612217 7.2303564 19.65743749 5.60229492 19.08349609 C-8.07926073 14.13313542 -8.07926073 14.13313542 -10.95703125 8.546875 C-11.33203125 5.984375 -11.33203125 5.984375 -10.95703125 3.546875 C-7.97405014 -0.42722565 -4.66744664 -0.12331431 0 0 Z " fill="#0D0D0D" transform="translate(38.95703125,96.453125)"/>
<path d="M0 0 C1.765625 1.328125 1.765625 1.328125 3 3 C3.25 6.3125 3.25 6.3125 2 10 C-3.45622026 15.80082364 -11.73905243 17.90710462 -19.08984375 20.33984375 C-22.70144075 21.53725171 -26.26077797 22.83679774 -29.81640625 24.19140625 C-30.8010083 24.56346191 -31.78561035 24.93551758 -32.80004883 25.31884766 C-34.73681048 26.05328793 -36.67038691 26.79619468 -38.6003418 27.54833984 C-39.49019775 27.88172363 -40.38005371 28.21510742 -41.296875 28.55859375 C-42.08416992 28.86079834 -42.87146484 29.16300293 -43.68261719 29.47436523 C-46.42461951 30.0963133 -48.30737241 29.72023914 -51 29 C-49.58072385 24.74217156 -46.44162353 23.60203587 -42.75 21.4375 C-37.29933067 18.15309892 -32.15565232 14.72679909 -27.1875 10.75 C-10.37585598 -2.49717429 -10.37585598 -2.49717429 0 0 Z " fill="#0E0E0E" transform="translate(480,97)"/>
<path d="M0 0 C-1.84541776 11.68065561 -10.46914345 22.08485198 -19.75 29 C-26.11047945 32.9141412 -30.63699531 33.25734774 -38 33 C-38.78610402 28.98213501 -38.69957338 27.0426009 -36.3828125 23.58984375 C-28.65557777 14.69389914 -12.71429605 0 0 0 Z " fill="#FCF9F5" transform="translate(139,70)"/>
<path d="M0 0 C2.01822917 0.06510417 4.03645833 0.13020833 6.0546875 0.1953125 C6.0546875 2.36461499 6.04993904 4.53403564 6.01953125 6.703125 C6.01050781 7.56679688 6.00148437 8.43046875 5.9921875 9.3203125 C5.98058594 10.18914062 5.96898437 11.05796875 5.95703125 11.953125 C5.90362252 14.23307507 5.90362252 14.23307507 7.0546875 16.1953125 C6.2503125 16.906875 6.2503125 16.906875 5.4296875 17.6328125 C2.68110989 20.59838308 0.59983691 23.7751572 -1.578125 27.171875 C-2.9453125 29.1953125 -2.9453125 29.1953125 -4.9453125 31.1953125 C-7.79133844 31.56018762 -9.3317431 31.59730625 -11.7578125 30.0078125 C-13.31209456 27.63548725 -13.17068438 25.97489905 -12.9453125 23.1953125 C-13.6053125 23.1953125 -14.2653125 23.1953125 -14.9453125 23.1953125 C-14.29200368 14.92006744 -10.14582202 7.55791533 -3.9453125 2.1953125 C-1.9453125 0.1953125 -1.9453125 0.1953125 0 0 Z " fill="#E28339" transform="translate(225.9453125,55.8046875)"/>
<path d="M0 0 C0 0.99 0 1.98 0 3 C-0.75023437 3.268125 -1.50046875 3.53625 -2.2734375 3.8125 C-10.94727163 7.1334642 -17.45413629 11.55648219 -24.08203125 18.03515625 C-28.30562605 22.09213982 -31.2154768 23.80110549 -37.1171875 24.22265625 C-39 24 -39 24 -41 22 C-41.5746046 17.7315087 -41.35708722 15.59514536 -39.125 11.875 C-29.5737517 1.7856532 -13.16109775 -0.28002336 0 0 Z " fill="#0D0D0D" transform="translate(68,127)"/>
<path d="M0 0 C15.29591457 -0.70687153 27.58800612 1.35875338 39.72265625 11.4296875 C42.10723367 14.36118634 41.28847862 17.36516934 41 21 C39 23 39 23 35.9375 23.5625 C30.24918151 22.74988307 27.24750147 19.70169403 23 16 C15.83870272 9.77122557 8.78545258 5.63535969 0 2 C0 1.34 0 0.68 0 0 Z " fill="#0E0E0E" transform="translate(443,128)"/>
<path d="M0 0 C-0.33 0.99 -0.66 1.98 -1 3 C-2.78515625 3.88671875 -2.78515625 3.88671875 -5.0625 4.6875 C-12.26114132 7.68788458 -16.63704948 13.40103985 -21.625 19.1875 C-29.11607992 27.78020932 -29.11607992 27.78020932 -34.75 28.4375 C-38 28 -38 28 -40 26 C-40.39453125 23.15234375 -40.39453125 23.15234375 -40 20 C-30.96704515 8.41979108 -14.77610708 -0.95329723 0 0 Z " fill="#101010" transform="translate(92,128)"/>
<path d="M0 0 C6.32275913 -0.39385374 10.26628608 0.52284715 15.8125 3.5 C16.5024707 3.85803711 17.19244141 4.21607422 17.90332031 4.58496094 C25.5220981 8.64051675 33.31403534 13.41150126 39 20 C39.3125 23.6875 39.3125 23.6875 39 27 C38 28 38 28 34.5625 28.625 C29.12430837 28.53775628 26.31399464 25.33831592 22.5703125 21.71484375 C19.96182771 18.95968124 17.48300012 16.11829325 15 13.25 C10.57933642 8.24693154 6.20347593 5.38899818 0 3 C0 2.01 0 1.02 0 0 Z " fill="#0B0B0B" transform="translate(420,128)"/>
<path d="M0 0 C0.33 0.33 0.66 0.66 1 1 C0.11938192 12.33621058 -7.18582785 23.00755776 -15 31 C-18.55879597 33.81897459 -21.38347776 36 -26 36 C-25.35232511 32.59775598 -24.02439905 30.17043698 -22.1875 27.25 C-18.84731886 21.80822164 -15.95237891 16.36024338 -13.5625 10.4375 C-7.89770355 -2.02505219 -7.89770355 -2.02505219 0 0 Z " fill="#0F0F0F" transform="translate(441,91)"/>
<path d="M0 0 C3.40507111 0.18917062 4.84888662 0.86868102 7.4453125 3.125 C10.20038905 6.22551429 11.83557682 9.14090689 13.625 12.875 C14.19476563 14.04804687 14.76453125 15.22109375 15.3515625 16.4296875 C16.46860005 18.84905319 17.52674628 21.25188164 18.54296875 23.7109375 C19.7448183 26.42395981 20.86499356 28.45134322 22.6875 30.75 C25 34 25 34 25 37 C19.56088473 36.6600553 15.83508053 33.60819599 12 30 C9.39791523 26.82392594 7.1957983 23.46516422 5 20 C4.41605469 19.15824219 3.83210938 18.31648438 3.23046875 17.44921875 C-0.60514066 11.67334791 -1.77015775 7.93141978 -1 1 C-0.67 0.67 -0.34 0.34 0 0 Z " fill="#0F0F0F" transform="translate(71,90)"/>
<path d="M0 0 C2 2 2 2 2.125 4.625 C2.08375 5.40875 2.0425 6.1925 2 7 C1.34 7 0.68 7 0 7 C-0.33 6.34 -0.66 5.68 -1 5 C-3.68178308 5.35452143 -4.73443061 5.66642766 -6.44921875 7.8203125 C-9.03911519 12.64062448 -10.65023085 16.52028329 -11 22 C-9.35 19.69 -7.7 17.38 -6 15 C-5.67 15.66 -5.34 16.32 -5 17 C-4.34 17 -3.68 17 -3 17 C-3.33 20.96 -3.66 24.92 -4 29 C-4.33 29 -4.66 29 -5 29 C-5.33 26.36 -5.66 23.72 -6 21 C-6.37511719 21.5053125 -6.75023437 22.010625 -7.13671875 22.53125 C-11.36878216 27.90394511 -11.36878216 27.90394511 -14.875 28.4375 C-15.57625 28.293125 -16.2775 28.14875 -17 28 C-17.66 26.68 -18.32 25.36 -19 24 C-19.66 24 -20.32 24 -21 24 C-21.144375 24.61875 -21.28875 25.2375 -21.4375 25.875 C-22 28 -22 28 -23 30 C-25.5625 30.625 -25.5625 30.625 -28 31 C-28 28.69 -28 26.38 -28 24 C-27.34 25.32 -26.68 26.64 -26 28 C-21.81066906 21.00951879 -17.92739091 14.01768887 -14.5546875 6.59375 C-10.72941625 0.21189042 -6.92706349 -0.68135051 0 0 Z " fill="#E38339" transform="translate(363,56)"/>
<path d="M0 0 C4.10406183 0.33563239 6.5234696 1.34410442 10.1484375 3.24609375 C15.57894681 5.91426306 19.75107137 7.10444575 25.7734375 7.30859375 C25.7734375 8.29859375 25.7734375 9.28859375 25.7734375 10.30859375 C21.89858115 10.39610788 18.02398107 10.4491581 14.1484375 10.49609375 C13.05402344 10.52123047 11.95960937 10.54636719 10.83203125 10.57226562 C0.43668528 10.66676877 0.43668528 10.66676877 -4.2265625 7.30859375 C-5.2265625 4.74609375 -5.2265625 4.74609375 -5.2265625 2.30859375 C-3.2265625 0.30859375 -3.2265625 0.30859375 0 0 Z " fill="#0D0D0D" transform="translate(27.2265625,114.69140625)"/>
<path d="M0 0 C2 2 2 2 2.0625 4.4375 C1 7 1 7 -1.8203125 8.6484375 C-7.03356254 10.72533658 -12.41526228 10.32118546 -17.9375 10.1875 C-19.00291016 10.17396484 -20.06832031 10.16042969 -21.16601562 10.14648438 C-23.77787588 10.11134724 -26.38866634 10.06215184 -29 10 C-29 9.34 -29 8.68 -29 8 C-28.32195312 7.84144531 -27.64390625 7.68289062 -26.9453125 7.51953125 C-21.87989199 6.24966821 -17.40455107 4.82634444 -12.8125 2.3125 C-8.21443095 -0.12220323 -5.16419622 -0.64552453 0 0 Z " fill="#0C0C0C" transform="translate(487,115)"/>
<path d="M0 0 C1.65 0.33 3.3 0.66 5 1 C6.37344385 5.39844322 5.24307502 8.92504555 4.0625 13.25 C3.86720703 13.99507812 3.67191406 14.74015625 3.47070312 15.5078125 C2.98895802 17.34079386 2.49560775 19.17071818 2 21 C2.66 21 3.32 21 4 21 C3.67 22.32 3.34 23.64 3 25 C0.13275314 24.42655063 -0.8614515 24.1385485 -3 22 C-3.23046875 19.9765625 -3.23046875 19.9765625 -3.1875 17.625 C-3.18105469 16.85414062 -3.17460937 16.08328125 -3.16796875 15.2890625 C-3.00595151 13.08110656 -2.60634894 11.12464668 -2 9 C-2.66 9 -3.32 9 -4 9 C-3.46930939 5.17902761 -2.50298434 2.93828597 0 0 Z " fill="#E28034" transform="translate(362,64)"/>
<path d="M0 0 C0.495 1.485 0.495 1.485 1 3 C-0.02738281 3.4846875 -1.05476563 3.969375 -2.11328125 4.46875 C-14.22821778 10.28433001 -26.17240564 16.63533759 -34 28 C-35.10979166 31.33693445 -35.10979166 31.33693445 -35 34 C-35.66 34 -36.32 34 -37 34 C-37.33 34.66 -37.66 35.32 -38 36 C-38.69439665 31.21637861 -38.99201839 28.47480067 -36.2421875 24.38671875 C-33.92612895 21.79979911 -31.52530868 19.38228958 -29 17 C-28.45085937 16.44441406 -27.90171875 15.88882813 -27.3359375 15.31640625 C-21.68066567 9.96564906 -7.86026078 0 0 0 Z " fill="#E58D48" transform="translate(136,68)"/>
<path d="M0 0 C0.66 0 1.32 0 2 0 C2 13.12507189 -6.8653356 25.47637001 -14 36 C-15.1618113 32.51456609 -14.82358197 31.82384001 -13.55859375 28.5 C-13.22480713 27.61731445 -12.89102051 26.73462891 -12.54711914 25.82519531 C-11.99785767 24.42672363 -11.99785767 24.42672363 -11.4375 23 C-11.07197021 22.05479492 -10.70644043 21.10958984 -10.32983398 20.13574219 C-3.95077404 3.95077404 -3.95077404 3.95077404 0 0 Z " fill="#FBF3ED" transform="translate(275,21)"/>
<path d="M0 0 C0 0.33 0 0.66 0 1 C-1.98 1.33 -3.96 1.66 -6 2 C-5.67 2.66 -5.34 3.32 -5 4 C-5.845625 4.515625 -6.69125 5.03125 -7.5625 5.5625 C-18.61135212 13.03214651 -24.49553519 24.29941172 -29.73828125 36.25 C-31 39 -31 39 -33 42 C-34.54922959 37.29888951 -33.21636698 34.23534696 -31.125 30 C-30.80982422 29.34644531 -30.49464844 28.69289063 -30.16992188 28.01953125 C-23.96700805 15.56552563 -15.47878115 -0.59533774 0 0 Z " fill="#E6904E" transform="translate(144,21)"/>
<path d="M0 0 C0.33 0 0.66 0 1 0 C2.29151583 9.04061081 -1.80899877 15.4504988 -6.00244141 23.14990234 C-7.3968541 25.73601576 -8.70094085 28.36499989 -10 31 C-10.99 30.67 -11.98 30.34 -13 30 C-11.28973398 20.25148368 -7.59151027 10.76360374 -3 2 C-2.34 2 -1.68 2 -1 2 C-0.67 1.34 -0.34 0.68 0 0 Z " fill="#E59252" transform="translate(259,18)"/>
<path d="M0 0 C1.15601551 7.32143157 -3.71096551 12.73746808 -7.69921875 18.421875 C-10.52077074 22.27503558 -10.52077074 22.27503558 -12 24 C-12.33 24 -12.66 24 -13 24 C-13.69640223 15.99137436 -10.98490554 9.09300085 -5.9375 2.875 C-3.44009217 0 -3.44009217 0 0 0 Z " fill="#FAF1EA" transform="translate(232,60)"/>
<path d="M0 0 C0.33 0 0.66 0 1 0 C1.92520422 11.10245064 -3.01201825 19.61923351 -8.5 28.9375 C-8.86730225 29.56414551 -9.23460449 30.19079102 -9.61303711 30.83642578 C-12.0136219 34.77891854 -14.6150219 37.85936011 -18 41 C-18.66 40.67 -19.32 40.34 -20 40 C-18.86355348 36.59066043 -17.24205443 34.79856437 -15 32 C-13.61553355 29.78539449 -12.28489901 27.58235315 -11 25.3125 C-10.65187256 24.69890625 -10.30374512 24.0853125 -9.94506836 23.453125 C-6.0847338 16.52603437 -3.1825637 9.88375799 -2 2 C-1.34 1.34 -0.68 0.68 0 0 Z " fill="#E59252" transform="translate(279,19)"/>
<path d="M0 0 C2 0 2 0 3.625 1.375 C5 3 5 3 5 5 C4.01 5.33 3.02 5.66 2 6 C0.23352088 8.44894957 0.23352088 8.44894957 -1.4375 11.375 C-3.6138162 15.06548699 -5.37757488 17.65935607 -9 20 C-8.05504426 12.195969 -5.67211283 5.67211283 0 0 Z " fill="#FAEFE7" transform="translate(297,59)"/>
<path d="M0 0 C3 1 3 1 4.1875 3.0625 C4.455625 3.701875 4.72375 4.34125 5 5 C4.01 5 3.02 5 2 5 C1.75378906 5.70511719 1.50757813 6.41023438 1.25390625 7.13671875 C-0.16781871 10.3832122 -1.96014211 12.96229793 -4.0625 15.8125 C-4.77535156 16.78832031 -5.48820313 17.76414062 -6.22265625 18.76953125 C-6.80917969 19.50558594 -7.39570313 20.24164063 -8 21 C-8.33 21 -8.66 21 -9 21 C-9.36773546 16.5626588 -8.22229306 13.85361025 -6.1875 9.9375 C-5.66542969 8.91527344 -5.14335937 7.89304687 -4.60546875 6.83984375 C-3.21639273 4.38276767 -1.75795739 2.2014061 0 0 Z " fill="#FAEEE3" transform="translate(166,59)"/>
<path d="M0 0 C1.32 0.33 2.64 0.66 4 1 C4 1.66 4 2.32 4 3 C4.66 3.33 5.32 3.66 6 4 C5.01 4.33 4.02 4.66 3 5 C1.68120307 6.40662042 1.68120307 6.40662042 0.51953125 8.16015625 C0.07802734 8.78857422 -0.36347656 9.41699219 -0.81835938 10.06445312 C-1.27017578 10.72380859 -1.72199219 11.38316406 -2.1875 12.0625 C-2.65091797 12.72572266 -3.11433594 13.38894531 -3.59179688 14.07226562 C-4.73472863 15.71007505 -5.8682718 17.35442897 -7 19 C-8.56231259 13.64602329 -6.39531517 9.86131178 -4 5 C-1.75 1.875 -1.75 1.875 0 0 Z " fill="#FAF0E8" transform="translate(359,60)"/>
<path d="M0 0 C0.99 0.103125 1.98 0.20625 3 0.3125 C5 3.3125 5 3.3125 4.75 5.375 C4 7.3125 4 7.3125 2 9.3125 C-0.5 9.5625 -0.5 9.5625 -3 9.3125 C-5 7.3125 -5 7.3125 -5.25 4.8125 C-4.86676958 0.9801958 -3.75087075 0.3907157 0 0 Z " fill="#1A1A1A" transform="translate(256,121.6875)"/>
<path d="M0 0 C0.66 0.33 1.32 0.66 2 1 C1.67 3.31 1.34 5.62 1 8 C0.34 7.34 -0.32 6.68 -1 6 C-1.93972656 7.37285156 -1.93972656 7.37285156 -2.8984375 8.7734375 C-3.72384782 9.97403432 -4.54937473 11.17455099 -5.375 12.375 C-5.7875 12.97828125 -6.2 13.5815625 -6.625 14.203125 C-8.3022395 16.63782751 -9.90467771 18.90467771 -12 21 C-12 20.34 -12 19.68 -12 19 C-12.66 19 -13.32 19 -14 19 C-12.85730302 15.57190905 -11.31187844 13.76859569 -9 11 C-8.22140625 10.04480469 -7.4428125 9.08960937 -6.640625 8.10546875 C-5.85171875 7.14253906 -5.0628125 6.17960937 -4.25 5.1875 C-3.05117188 3.72376953 -3.05117188 3.72376953 -1.828125 2.23046875 C-1.22484375 1.49441406 -0.6215625 0.75835937 0 0 Z " fill="#E69354" transform="translate(332,58)"/>
<path d="M0 0 C0.33 0 0.66 0 1 0 C1 9.31482558 -3.46101428 16.15241421 -8 24 C-9.37747682 21.24504635 -8.43382257 19.65081384 -7.51245117 16.84399414 C-7.28146729 16.17360107 -7.0504834 15.50320801 -6.8125 14.8125 C-6.58344971 14.13501709 -6.35439941 13.45753418 -6.1184082 12.75952148 C-4.51075161 8.13716049 -2.68488583 4.07704886 0 0 Z " fill="#F9EEE3" transform="translate(256,21)"/>
<path d="M0 0 C0.99 0.33 1.98 0.66 3 1 C2.28597154 4.40166367 1.02034859 7.35070098 -0.4375 10.5 C-0.86933594 11.4384375 -1.30117188 12.376875 -1.74609375 13.34375 C-2.80127743 15.57903006 -3.8821773 17.79554966 -5 20 C-5.33 19.34 -5.66 18.68 -6 18 C-6.99 18.66 -7.98 19.32 -9 20 C-7.32073668 15.63221913 -5.36694083 11.41834992 -3.375 7.1875 C-2.88773437 6.14819336 -2.88773437 6.14819336 -2.390625 5.08789062 C-1.59500115 3.39133977 -0.79767301 1.69558835 0 0 Z " fill="#FAEFE5" transform="translate(259,27)"/>
<path d="M0 0 C0.66 0.33 1.32 0.66 2 1 C0.42772544 4.85921938 -2.07740557 7.07740557 -5 10 C-7.39604391 12.95280101 -9.70691297 15.96678113 -12 19 C-14 16 -14 16 -13.625 13.3125 C-13.41875 12.549375 -13.2125 11.78625 -13 11 C-12.34 11.33 -11.68 11.66 -11 12 C-10.54109375 11.46890625 -10.0821875 10.9378125 -9.609375 10.390625 C-6.50506283 6.81675301 -3.41818688 3.28145941 0 0 Z " fill="#E59152" transform="translate(411,59)"/>
<path d="M0 0 C0.66 0.33 1.32 0.66 2 1 C2 1.99 2 2.98 2 4 C0.8748915 5.1251085 -0.25732651 6.2438902 -1.421875 7.328125 C-4.73889165 10.84219214 -7.30576367 15.00134953 -10 19 C-10.99 18.67 -11.98 18.34 -13 18 C-13 16.35 -13 14.7 -13 13 C-12.01 13 -11.02 13 -10 13 C-8.44761323 11.40553739 -8.44761323 11.40553739 -7.0625 9.3125 C-6.54558594 8.58675781 -6.02867187 7.86101562 -5.49609375 7.11328125 C-4.75552734 6.06720703 -4.75552734 6.06720703 -4 5 C-2.67518731 3.32655239 -1.34592097 1.65651812 0 0 Z " fill="#E69354" transform="translate(201,58)"/>
<path d="M0 0 C0.66 0.33 1.32 0.66 2 1 C1.01 2.485 1.01 2.485 0 4 C-0.33 4.99 -0.66 5.98 -1 7 C-1.598125 7.721875 -2.19625 8.44375 -2.8125 9.1875 C-5.44535008 12.57259295 -7.19409006 16.12882072 -9 20 C-9.66 19.67 -10.32 19.34 -11 19 C-11.66 19.66 -12.32 20.32 -13 21 C-12.67 18.69 -12.34 16.38 -12 14 C-11.34 14.33 -10.68 14.66 -10 15 C-9.69707031 14.41992188 -9.39414062 13.83984375 -9.08203125 13.2421875 C-6.45192002 8.33804164 -3.71697151 4.14176825 0 0 Z " fill="#E89E64" transform="translate(394,56)"/>
<path d="M0 0 C0.33 0.66 0.66 1.32 1 2 C1.66 2.33 2.32 2.66 3 3 C1.90391041 5.44142696 0.79860082 7.87791491 -0.3125 10.3125 C-0.62123047 11.00279297 -0.92996094 11.69308594 -1.24804688 12.40429688 C-1.55419922 13.07138672 -1.86035156 13.73847656 -2.17578125 14.42578125 C-2.45333252 15.03848877 -2.73088379 15.65119629 -3.0168457 16.2824707 C-4.1091791 18.19073131 -5.38865393 19.51581318 -7 21 C-7.66 20.34 -8.32 19.68 -9 19 C-8.51789063 18.04738281 -8.03578125 17.09476563 -7.5390625 16.11328125 C-6.90093396 14.84640841 -6.26291914 13.57947829 -5.625 12.3125 C-5.30789063 11.68666016 -4.99078125 11.06082031 -4.6640625 10.41601562 C-2.94527919 6.99635299 -1.35530783 3.57992926 0 0 Z " fill="#E59150" transform="translate(279,79)"/>
<path d="M0 0 C1.32 0.33 2.64 0.66 4 1 C3.01 1 2.02 1 1 1 C1.33 2.65 1.66 4.3 2 6 C1.01 6 0.02 6 -1 6 C-2.70196856 8.2269175 -2.70196856 8.2269175 -4.1875 11 C-4.71730469 11.928125 -5.24710937 12.85625 -5.79296875 13.8125 C-6.19128906 14.534375 -6.58960938 15.25625 -7 16 C-7.99 15.67 -8.98 15.34 -10 15 C-8.67494706 8.5403669 -4.40590065 4.61082626 0 0 Z " fill="#E69353" transform="translate(266,62)"/>
<path d="M0 0 C0.33 0.99 0.66 1.98 1 3 C-3.95 5.31 -8.9 7.62 -14 10 C-14 9.34 -14 8.68 -14 8 C-14.66 7.67 -15.32 7.34 -16 7 C-13.71070947 5.82845707 -11.41881638 4.66261926 -9.125 3.5 C-8.47402344 3.16613281 -7.82304687 2.83226563 -7.15234375 2.48828125 C-2.2265625 0 -2.2265625 0 0 0 Z " fill="#E79557" transform="translate(136,68)"/>
<path d="M0 0 C0.33 0.66 0.66 1.32 1 2 C1.66 2 2.32 2 3 2 C2.67 5.96 2.34 9.92 2 14 C1.67 14 1.34 14 1 14 C0.67 11.36 0.34 8.72 0 6 C-1.32 7.32 -2.64 8.64 -4 10 C-4.99 9.67 -5.98 9.34 -7 9 C-6.67 7.68 -6.34 6.36 -6 5 C-5.67 5.66 -5.34 6.32 -5 7 C-3.35 4.69 -1.7 2.38 0 0 Z " fill="#E9A169" transform="translate(357,71)"/>
<path d="M0 0 C0.33 0.99 0.66 1.98 1 3 C1.66 3 2.32 3 3 3 C1 9 -1 15 -3 21 C-3.95827504 17.95501389 -3.99431517 15.97726069 -3.22265625 12.890625 C-3.03896484 12.13652344 -2.85527344 11.38242187 -2.66601562 10.60546875 C-2.36727539 9.43951172 -2.36727539 9.43951172 -2.0625 8.25 C-1.86720703 7.45722656 -1.67191406 6.66445313 -1.47070312 5.84765625 C-0.98875921 3.89637115 -0.49547912 1.94789217 0 0 Z " fill="#F5DAC4" transform="translate(111,46)"/>
<path d="M0 0 C0.99 0.66 1.98 1.32 3 2 C3 2.66 3 3.32 3 4 C2.4225 4.556875 1.845 5.11375 1.25 5.6875 C-1.54205931 8.55711651 -3.10447159 11.47973295 -5 15 C-5.99 14.67 -6.98 14.34 -8 14 C-6.6744419 10.37723685 -5.05653045 7.36494652 -2.875 4.1875 C-2.33617187 3.39730469 -1.79734375 2.60710937 -1.2421875 1.79296875 C-0.83226562 1.20128906 -0.42234375 0.60960938 0 0 Z " fill="#E59352" transform="translate(230,68)"/>
<path d="M0 0 C2 3 2 3 1.625 5.1875 C1.41875 5.785625 1.2125 6.38375 1 7 C0.34 7 -0.32 7 -1 7 C-1.639375 7.66 -2.27875 8.32 -2.9375 9 C-5 11 -5 11 -8 11 C-6.76163579 7.28490737 -4.77895064 5.71117136 -2 3 C-1.34 2.01 -0.68 1.02 0 0 Z " fill="#E69659" transform="translate(295,70)"/>
<path d="M0 0 C0.33 0.66 0.66 1.32 1 2 C1.66 2 2.32 2 3 2 C3 4 3 4 1.6875 5.375 C1.130625 5.91125 0.57375 6.4475 0 7 C-1.01800576 8.31963709 -2.02248365 9.65009646 -3 11 C-3 10.34 -3 9.68 -3 9 C-3.99 9.33 -4.98 9.66 -6 10 C-6 8.02 -6 6.04 -6 4 C-5.01 5.485 -5.01 5.485 -4 7 C-2.68 4.69 -1.36 2.38 0 0 Z " fill="#E79C61" transform="translate(210,77)"/>
<path d="M0 0 C0.33 0.66 0.66 1.32 1 2 C1.66 2.33 2.32 2.66 3 3 C2.34 3 1.68 3 1 3 C0.7834375 3.928125 0.7834375 3.928125 0.5625 4.875 C0 7 0 7 -1 9 C-3.5625 9.625 -3.5625 9.625 -6 10 C-6 7.69 -6 5.38 -6 3 C-5.34 4.32 -4.68 5.64 -4 7 C-2.68 4.69 -1.36 2.38 0 0 Z " fill="#E79A5F" transform="translate(341,77)"/>
<path d="M0 0 C0.65234375 1.765625 0.65234375 1.765625 1 4 C0.00390625 5.921875 0.00390625 5.921875 -1.4375 7.75 C-1.91058594 8.36359375 -2.38367188 8.9771875 -2.87109375 9.609375 C-3.24363281 10.06828125 -3.61617188 10.5271875 -4 11 C-4.33 10.01 -4.66 9.02 -5 8 C-5.66 8 -6.32 8 -7 8 C-6.67 7.01 -6.34 6.02 -6 5 C-5.34 5 -4.68 5 -4 5 C-2.61767557 3.37373596 -1.28062485 1.7074998 0 0 Z " fill="#E5904E" transform="translate(371,77)"/>
<path d="M0 0 C0.99 0.33 1.98 0.66 3 1 C2.37312706 3.92540704 1.64872507 6.4835249 0 9 C-2.125 9.75 -2.125 9.75 -4 10 C-2.8905928 6.51329166 -1.73662334 3.22515763 0 0 Z " fill="#F8E5D6" transform="translate(259,27)"/>
<path d="M0 0 C6.0546875 -0.1953125 6.0546875 -0.1953125 8 0 C8.66 0.66 9.32 1.32 10 2 C8.68 2 7.36 2 6 2 C6.33 2.99 6.66 3.98 7 5 C4.69 4.34 2.38 3.68 0 3 C0 2.01 0 1.02 0 0 Z " fill="#313131" transform="translate(420,128)"/>
<path d="M0 0 C1.22602512 3.67807537 0.70295577 5.88243927 0.0625 9.6875 C-0.13214844 10.86699219 -0.32679688 12.04648438 -0.52734375 13.26171875 C-0.68332031 14.16535156 -0.83929688 15.06898437 -1 16 C-1.33 16 -1.66 16 -2 16 C-2.33 13.69 -2.66 11.38 -3 9 C-3.99 9.495 -3.99 9.495 -5 10 C-3.66511872 6.40608886 -2.03977277 3.24509304 0 0 Z " fill="#F6E2D0" transform="translate(392,62)"/>
<path d="M0 0 C1.32 0.66 2.64 1.32 4 2 C3.21516341 3.48280196 2.42190666 4.9611498 1.625 6.4375 C1.18414062 7.26121094 0.74328125 8.08492187 0.2890625 8.93359375 C-1 11 -1 11 -3 12 C-2.25749403 7.91621717 -1.17076699 3.98060777 0 0 Z " fill="#F9EADD" transform="translate(263,45)"/>
<path d="M0 0 C0 0.33 0 0.66 0 1 C2.31 1.33 4.62 1.66 7 2 C7 2.33 7 2.66 7 3 C1.72 3 -3.56 3 -9 3 C-9.33 2.34 -9.66 1.68 -10 1 C-6.78548731 -0.60725635 -3.56387464 -0.05748185 0 0 Z " fill="#757575" transform="translate(111,125)"/>
<path d="M0 0 C0.66 0.99 1.32 1.98 2 3 C0.02 5.97 0.02 5.97 -2 9 C-2.99 8.67 -3.98 8.34 -5 8 C-5 6.35 -5 4.7 -5 3 C-4.01 3 -3.02 3 -2 3 C-1.34 2.01 -0.68 1.02 0 0 Z " fill="#E89B60" transform="translate(193,68)"/>
<path d="M0 0 C0.99386719 0.02707031 1.98773438 0.05414063 3.01171875 0.08203125 C4.15060547 0.13423828 4.15060547 0.13423828 5.3125 0.1875 C5.6425 0.8475 5.9725 1.5075 6.3125 2.1875 C5.28189453 2.13529297 5.28189453 2.13529297 4.23046875 2.08203125 C3.32941406 2.05496094 2.42835937 2.02789062 1.5 2 C0.16001953 1.94779297 0.16001953 1.94779297 -1.20703125 1.89453125 C-3.71571585 1.97372654 -3.71571585 1.97372654 -5.38671875 3.51171875 C-6.55654879 5.01879709 -7.62923037 6.60009556 -8.6875 8.1875 C-9.0507199 3.70778796 -9.0507199 3.70778796 -7.53125 1.53125 C-4.96007941 -0.34265399 -3.1429375 -0.11092721 0 0 Z " fill="#575757" transform="translate(36.6875,96.8125)"/>
<path d="M0 0 C1 4 1 4 0.22265625 5.921875 C-0.8515625 7.61458333 -1.92578125 9.30729167 -3 11 C-3.33 10.34 -3.66 9.68 -4 9 C-4.66 8.67 -5.32 8.34 -6 8 C-4.02 5.36 -2.04 2.72 0 0 Z " fill="#E69457" transform="translate(310,74)"/>
<path d="M0 0 C0.33 0 0.66 0 1 0 C1 3.63 1 7.26 1 11 C0.67 11 0.34 11 0 11 C-0.33 9.02 -0.66 7.04 -1 5 C-2.32 6.32 -3.64 7.64 -5 9 C-5.66 8.67 -6.32 8.34 -7 8 C-5.85760183 6.66372225 -4.71098945 5.33104612 -3.5625 4 C-2.92441406 3.2575 -2.28632813 2.515 -1.62890625 1.75 C-1.09136719 1.1725 -0.55382812 0.595 0 0 Z " fill="#F6DECB" transform="translate(295,75)"/>
<path d="M0 0 C0.66 0.33 1.32 0.66 2 1 C1.67 3.31 1.34 5.62 1 8 C0.34 7.34 -0.32 6.68 -1 6 C-3.10820797 6.3185177 -3.10820797 6.3185177 -5 7 C-1.125 1.125 -1.125 1.125 0 0 Z " fill="#E9A067" transform="translate(332,58)"/>
<path d="M0 0 C0.66 0.33 1.32 0.66 2 1 C1.01 2.485 1.01 2.485 0 4 C-0.33 4.99 -0.66 5.98 -1 7 C-2.29355827 8.37195574 -3.62298702 9.71182656 -5 11 C-5.33 10.01 -5.66 9.02 -6 8 C-4.78515625 5.95703125 -4.78515625 5.95703125 -3.0625 3.8125 C-2.49660156 3.09707031 -1.93070312 2.38164063 -1.34765625 1.64453125 C-0.90292969 1.10183594 -0.45820313 0.55914062 0 0 Z " fill="#E59454" transform="translate(394,56)"/>
<path d="M0 0 C2.05078125 0.03255208 4.1015625 0.06510417 6.15234375 0.09765625 C6.15234375 0.42765625 6.15234375 0.75765625 6.15234375 1.09765625 C5.14171875 1.11828125 4.13109375 1.13890625 3.08984375 1.16015625 C-1.97402669 1.82155974 -4.66461811 5.39217416 -7.84765625 9.09765625 C-7.84765625 6.09765625 -7.84765625 6.09765625 -5.41015625 3.47265625 C-4.56453125 2.68890625 -3.71890625 1.90515625 -2.84765625 1.09765625 C-1.84765625 0.09765625 -1.84765625 0.09765625 0 0 Z " fill="#E89859" transform="translate(356.84765625,55.90234375)"/>
<path d="M0 0 C0.33 0.66 0.66 1.32 1 2 C1.66 2.33 2.32 2.66 3 3 C1.35 5.97 -0.3 8.94 -2 12 C-3.40907283 9.18185434 -2.50872691 7.82722796 -1.5625 4.875 C-1.27503906 3.96492188 -0.98757812 3.05484375 -0.69140625 2.1171875 C-0.46324219 1.41851562 -0.23507813 0.71984375 0 0 Z " fill="#F6DECA" transform="translate(250,33)"/>
<path d="M0 0 C0.33 0 0.66 0 1 0 C1.08131463 1.43655854 1.13933559 2.8744483 1.1875 4.3125 C1.22230469 5.11300781 1.25710938 5.91351563 1.29296875 6.73828125 C1 9 1 9 -2 12 C-2.33 8.7 -2.66 5.4 -3 2 C-2.34 2 -1.68 2 -1 2 C-0.67 1.34 -0.34 0.68 0 0 Z " fill="#E6985C" transform="translate(259,18)"/>
<path d="M0 0 C1 4 1 4 -0.9375 7.25 C-1.618125 8.1575 -2.29875 9.065 -3 10 C-3.66 9.01 -4.32 8.02 -5 7 C-3.35 4.69 -1.7 2.38 0 0 Z " fill="#E59151" transform="translate(163,72)"/>
<path d="M0 0 C1.60031344 3.20062687 0.03173691 5.72271806 -1 9 C-1.66 8.34 -2.32 7.68 -3 7 C-3.99 7.66 -4.98 8.32 -6 9 C-4.47291037 5.56404834 -2.40072955 2.88087546 0 0 Z " fill="#F7E2D1" transform="translate(201,62)"/>
<path d="M0 0 C1.46726798 3.81489674 0.43336419 6.29011622 -1 10 C-1.99 9.67 -2.98 9.34 -4 9 C-4 8.01 -4 7.02 -4 6 C-3.34 6 -2.68 6 -2 6 C-1.34 4.02 -0.68 2.04 0 0 Z " fill="#E48A45" transform="translate(110,61)"/>
<path d="M0 0 C1 2 1 2 0.3125 4.5 C-1.17797624 7.33900236 -2.06334546 7.89875455 -5 9 C-5.99 9.495 -5.99 9.495 -7 10 C-5.33248852 6.05860922 -2.77289351 3.2107188 0 0 Z " fill="#F7E6D8" transform="translate(410,63)"/>
<path d="M0 0 C0.33 0.99 0.66 1.98 1 3 C-4.0940919 8.88183807 -4.0940919 8.88183807 -7.875 9.375 C-8.57625 9.25125 -9.2775 9.1275 -10 9 C-9.40703125 8.74476562 -8.8140625 8.48953125 -8.203125 8.2265625 C-5.78775462 6.88183502 -4.48788294 5.50785633 -2.75 3.375 C-2.22921875 2.74335937 -1.7084375 2.11171875 -1.171875 1.4609375 C-0.78515625 0.97882813 -0.3984375 0.49671875 0 0 Z " fill="#F7E5D5" transform="translate(357,76)"/>
<path d="M0 0 C0.99 0.33 1.98 0.66 3 1 C3.33 1.99 3.66 2.98 4 4 C2.68 5.32 1.36 6.64 0 8 C-0.79953138 4.71303767 -1.09658936 3.28976808 0 0 Z " fill="#E69658" transform="translate(398,70)"/>
<path d="M0 0 C0.93065133 2.60582371 1.14917407 3.64198224 0.0625 6.25 C-0.4634375 7.11625 -0.4634375 7.11625 -1 8 C-1.33 7.34 -1.66 6.68 -2 6 C-2.99 6.66 -3.98 7.32 -5 8 C-3.62845496 5.04590299 -2.01136276 2.55991624 0 0 Z " fill="#F8E9DC" transform="translate(331,63)"/>
<path d="M0 0 C0.33 0 0.66 0 1 0 C0.67 2.97 0.34 5.94 0 9 C-0.99 8.34 -1.98 7.68 -3 7 C-1.125 1.125 -1.125 1.125 0 0 Z " fill="#F8E5D5" transform="translate(256,21)"/>
<path d="M0 0 C2.31 0 4.62 0 7 0 C7 0.99 7 1.98 7 3 C5.35 3.33 3.7 3.66 2 4 C2 3.34 2 2.68 2 2 C1.34 1.34 0.68 0.68 0 0 Z " fill="#373737" transform="translate(61,127)"/>
<path d="M0 0 C0.66 0.33 1.32 0.66 2 1 C0.95125002 3.62187494 0.35068687 4.79371361 -2.125 6.25 C-2.74375 6.4975 -3.3625 6.745 -4 7 C-4 4 -4 4 -2 1.8125 C-1.34 1.214375 -0.68 0.61625 0 0 Z " fill="#E38B47" transform="translate(411,59)"/>
<path d="M0 0 C0.66 0 1.32 0 2 0 C2 1.98 2 3.96 2 6 C1.34 5.34 0.68 4.68 0 4 C-0.99 4.66 -1.98 5.32 -3 6 C-1.125 1.125 -1.125 1.125 0 0 Z " fill="#F6E0CE" transform="translate(275,21)"/>
</svg>
